<?xml version="1.0" ?><svg style="enable-background:new 0 0 64 64;" version="1.1" viewBox="0 0 64 64" xml:space="preserve" xmlns="http://www.w3.org/2000/svg" xmlns:xlink="http://www.w3.org/1999/xlink"><g id="cloudy_sunny"/><g id="bright"/><g id="cloudy"><g><path d="M35.2,37.5h-1.8c-0.5-5.3-5-9.5-10.5-9.5c-4.4,0-8.3,2.8-9.8,6.8c-0.3,0-0.7-0.1-1-0.1c-5,0-9.1,4.1-9.1,9.1    S7.1,53,12.1,53h23.1c4.3,0,7.8-3.5,7.8-7.8S39.5,37.5,35.2,37.5z M35.2,51H12.1C8.2,51,5,47.8,5,43.9s3.2-7.1,7.1-7.1    c0.5,0,1,0.1,1.5,0.2c0.5,0.1,1-0.2,1.2-0.7c1-3.7,4.4-6.2,8.2-6.2c4.7,0,8.5,3.8,8.5,8.5c0,0.6,0.4,1,1,1h2.7    c3.2,0,5.8,2.6,5.8,5.8S38.4,51,35.2,51z"/><path d="M53.4,16c-1.2-3-4.1-5-7.4-5c-4.1,0-7.4,3.1-7.9,7H37c-3.3,0-6,2.7-6,6s2.7,6,6,6h17c3.9,0,7-3.1,7-7    C61,18.9,57.5,15.7,53.4,16z M54,28H37c-2.2,0-4-1.8-4-4s1.8-4,4-4h2c0.6,0,1-0.4,1-1c0-3.3,2.7-6,6-6c2.7,0,5.1,1.8,5.8,4.4    c0.1,0.5,0.7,0.8,1.2,0.7c0.3-0.1,0.7-0.1,1-0.1c2.8,0,5,2.2,5,5S56.8,28,54,28z"/></g></g><g id="high_rainfall"/><g id="windy"/><g id="rain_with_thunder"/><g id="clear_night"/><g id="cloudy_night"/><g id="moon"/><g id="sun"/><g id="rainy_night"/><g id="windy_night"/><g id="night_rain_thunder"/><g id="windy_rain"/><g id="temperature"/><g id="humidity"/><g id="air_pressure"/><g id="low_rainfall"/><g id="moderate_rainfall"/><g id="Sunset"/></svg>