<?xml version="1.0" ?><svg style="enable-background:new 0 0 64 64;" version="1.1" viewBox="0 0 64 64" xml:space="preserve" xmlns="http://www.w3.org/2000/svg" xmlns:xlink="http://www.w3.org/1999/xlink"><g id="cloudy_sunny"/><g id="bright"/><g id="cloudy"/><g id="high_rainfall"/><g id="windy"><g><path d="M50,25h-3c-0.5-7.8-7-14-15-14c-6.4,0-12.1,4.1-14.2,10.1C17.2,21,16.6,21,16,21C8.8,21,3,26.8,3,34s5.8,13,13,13h34    c6.1,0,11-4.9,11-11S56.1,25,50,25z M50,45H16C9.9,45,5,40.1,5,34s4.9-11,11-11c0.8,0,1.5,0.1,2.3,0.2c0.5,0.1,1-0.2,1.2-0.7    C21,16.9,26.2,13,32,13c7.2,0,13,5.8,13,13c0,0.6,0.4,1,1,1h4c5,0,9,4,9,9S55,45,50,45z"/><path d="M24,30h-1c-2.2,0-4,1.8-4,4c0,1.7,1.3,3,3,3c0.6,0,1-0.4,1-1s-0.4-1-1-1c-0.6,0-1-0.4-1-1c0-1.1,0.9-2,2-2h1    c1.7,0,3,1.3,3,3s-1.3,3-3,3H12c-0.6,0-1,0.4-1,1s0.4,1,1,1h12c2.8,0,5-2.2,5-5S26.8,30,24,30z"/><path d="M48,33h-1c-2.2,0-4,1.8-4,4c0,1.7,1.3,3,3,3c0.6,0,1-0.4,1-1s-0.4-1-1-1c-0.6,0-1-0.4-1-1c0-1.1,0.9-2,2-2h1    c1.7,0,3,1.3,3,3s-1.3,3-3,3H30c-0.6,0-1,0.4-1,1s0.4,1,1,1h18c2.8,0,5-2.2,5-5S50.8,33,48,33z"/><path d="M41,49H19c-0.6,0-1,0.4-1,1s0.4,1,1,1h22c1.7,0,3,1.3,3,3s-1.3,3-3,3h-1c-1.1,0-2-0.9-2-2c0-0.6,0.4-1,1-1    c0.6,0,1-0.4,1-1s-0.4-1-1-1c-1.7,0-3,1.3-3,3c0,2.2,1.8,4,4,4h1c2.8,0,5-2.2,5-5S43.8,49,41,49z"/></g></g><g id="rain_with_thunder"/><g id="clear_night"/><g id="cloudy_night"/><g id="moon"/><g id="sun"/><g id="rainy_night"/><g id="windy_night"/><g id="night_rain_thunder"/><g id="windy_rain"/><g id="temperature"/><g id="humidity"/><g id="air_pressure"/><g id="low_rainfall"/><g id="moderate_rainfall"/><g id="Sunset"/></svg>